<svg viewBox="0 0 64 64" xmlns="http://www.w3.org/2000/svg" fill-rule="evenodd" clip-rule="evenodd" stroke-linejoin="round" stroke-miterlimit="2">
  <path d="M49.635 24.08c0-3.314-2.686-6-6-6s-6 2.686-6 6c0 3.256 2.614 5.903 5.86 5.996l.004.148c.036 1.346.23 2.656.55 3.89.28 1.08.68 2.11 1.18 3.08-2.61-2.43-5.74-3.95-9.229-4.32-.39-.04-.78-.06-1.19-.06-1.1 0-2.19.14-3.25.4-4.52 1.12-8.33 3.86-10.74 7.64-.17.26-.33.53-.49.8-1.12-2.1-2.6-3.97-4.32-5.51.5-1.09.89-2.26 1.16-3.51.27-1.25.4-2.58.4-3.99 0-3.314-2.686-6-6-6s-6 2.686-6 6c0 3.256 2.614 5.903 5.86 5.996.14 0 .28-.01.42-.01.12 1.9.46 3.73 1.01 5.43.51 1.58.94 2.87 1.05 3.37.07.34.1.66.1.92 0 1.2-.33 2.37-.95 3.44-1.25 2.13-3.13 3.91-5.49 5.21-.19.11-.3.32-.3.55 0 .34.28.62.62.62.33 0 .6-.26.62-.59.08-1.55.45-3.04 1.08-4.44.62-1.38 1.5-2.64 2.58-3.72.93.98 2.03 1.83 3.28 2.51.52.29 1.07.54 1.65.73 2.22.75 4.6 1.13 7 1.13s4.78-.38 7-1.13c.58-.19 1.13-.44 1.65-.73 1.25-.68 2.35-1.53 3.28-2.51 1.08 1.08 1.96 2.34 2.58 3.72.63 1.4 1 2.89 1.08 4.44.02.33.29.59.62.59.34 0 .62-.28.62-.62 0-.23-.11-.44-.3-.55-2.36-1.3-4.24-3.08-5.49-5.21-.62-1.07-.95-2.24-.95-3.44 0-.26.03-.58.1-.92.11-.5.54-1.79 1.05-3.37.55-1.7 1.33-4.47 1.01-5.43.14.01.28.01.42.01 3.246-.093 5.86-2.74 5.86-5.996z"/>
</svg> 